<svg width="175" height="48" viewBox="0 0 175 48" fill="none" xmlns="http://www.w3.org/2000/svg">
<path d="M16.7979 0.130859C16.9651 -0.0381359 17.2363 -0.044284 17.4111 0.117188C17.5696 0.263623 17.5985 0.503077 17.4805 0.683594C15.9844 2.96822 6.76292 17.2154 4.96191 24.0635C2.11752 34.8807 8.32611 41.0805 20.5908 40.6934C27.6717 40.47 32.697 37.8775 32.6816 32.7871C32.6689 28.6791 30.1347 25.6271 29.7822 25.0137C29.7434 24.9467 29.6698 24.9079 29.5918 24.9131C29.1867 24.9397 27.8758 25.0457 26.6025 25.3564C25.9833 25.5081 25.3562 25.724 24.8301 25.9277C24.0754 26.2205 23.2256 25.8571 22.9102 25.1123L18.6123 14.9697C18.5689 14.8679 18.6147 14.7504 18.7148 14.7041L19.5742 14.3076V14.3086C19.6783 14.2606 19.8018 14.3076 19.8477 14.4121L24.1611 24.2861C24.2103 24.399 24.3482 24.4441 24.4541 24.3799C24.9808 24.0604 26.5172 23.2266 28.5439 22.9922C31.0679 22.7005 33.457 23.2041 33.457 23.2041C33.475 23.1712 34.745 20.8557 36.7148 19.5283C38.2267 18.51 40.0842 17.6235 40.6611 17.3564C40.7612 17.3102 40.8058 17.193 40.7637 17.0918L36.6816 7.33398C36.6359 7.22518 36.6906 7.10088 36.8018 7.06152L37.7471 6.72852C37.8487 6.6928 37.9605 6.74167 38.0029 6.84082L42.2832 16.9004C42.6021 17.6493 42.2611 18.5183 41.5156 18.8447C41.0486 19.0496 40.4909 19.3214 39.8896 19.6709C38.5361 20.4586 37.6405 21.3364 37.3506 21.6396C37.2899 21.7032 37.2769 21.7989 37.3184 21.877C37.819 22.8116 40.8302 28.7747 39.9668 35.4365C39.3551 40.1574 35.2397 50.9151 12.125 46.5137C5.39586 45.2323 -1.14019 37.9825 0.168945 28.083C1.24313 19.9604 5.60256 14.1546 8.02637 10.6387C11.5428 5.53999 15.6634 1.27401 16.7979 0.130859ZM23.7793 11.3242C25.7633 11.0302 27.5316 11.3056 27.9512 11.3809C28.0094 11.3913 28.0579 11.4306 28.0811 11.4854L32.3701 21.8271C32.4226 21.9544 32.3137 22.0893 32.1777 22.0645C31.5559 21.9522 30.0739 21.7633 28.1807 22.0566C26.2332 22.3588 25.1478 22.9414 24.7549 23.1914C24.6635 23.2489 24.5426 23.2112 24.501 23.1113L20.0947 12.4912C20.0577 12.4021 20.1007 12.2996 20.1904 12.2637C20.6312 12.0847 21.9458 11.5962 23.7793 11.3242ZM34.9824 6.07227C35.0698 6.03986 35.1667 6.08231 35.2031 6.16797L39.6641 16.665C39.7046 16.76 39.6537 16.8687 39.5547 16.8994C39.1431 17.0262 38.0805 17.4195 36.6455 18.4385C35.1832 19.4772 34.0343 20.9699 33.6094 21.5615C33.5307 21.6714 33.3619 21.6535 33.3086 21.5293L28.9189 11.2217L28.9072 11.1797C28.9008 11.1377 28.9103 11.094 28.9346 11.0576C29.2015 10.6544 30.4746 8.79925 31.9971 7.76074C33.6671 6.62075 34.6287 6.2037 34.9824 6.07227Z" fill="url(#paint0_linear_180_233)"/>
<defs>
<linearGradient id="paint0_linear_180_233" x1="0.000976562" y1="23.7747" x2="42.4023" y2="23.7747" gradientUnits="userSpaceOnUse">
<stop stop-color="white"/>
<stop offset="1" stop-color="white"/>
</linearGradient>
</defs>
</svg>
